<svg width="40" height="40" viewBox="0 0 40 40" fill="none" xmlns="http://www.w3.org/2000/svg">
<mask id="mask0_148_14424" style="mask-type:alpha" maskUnits="userSpaceOnUse" x="0" y="0" width="40" height="40">
<rect width="40" height="40" rx="9.6" fill="#6A5AE0"/>
</mask>
<g mask="url(#mask0_148_14424)">
<path d="M41.2865 28.899C41.2864 34.5085 39.0402 39.8883 35.0419 43.8549C31.0436 47.8214 25.6209 50.0498 19.9665 50.05C19.6749 50.05 19.3888 50.0445 19.0972 50.0336C17.5398 49.9705 15.9939 49.7399 14.4866 49.3459C14.7782 49.1985 15.0643 49.0511 15.3504 48.8928C15.3559 48.8928 15.3614 48.8874 15.3724 48.8819L15.3779 48.8765C15.6805 48.7127 15.9776 48.549 16.2692 48.3798C16.3407 48.3361 16.4123 48.2979 16.4838 48.2597C16.7589 48.0959 17.034 47.9322 17.3036 47.7575C17.3833 47.7147 17.4604 47.6673 17.5347 47.6156C17.7437 47.49 17.9528 47.3536 18.1564 47.2171C18.2994 47.1243 18.448 47.0261 18.5855 46.9333C18.7946 46.7914 18.9982 46.6495 19.2017 46.5021C19.3393 46.4093 19.4658 46.3165 19.5979 46.2128C19.7739 46.0927 19.9445 45.9617 20.1151 45.8307C20.2691 45.7216 20.4177 45.6069 20.5662 45.4868C20.7753 45.3286 20.9789 45.1648 21.1824 44.9901C21.2705 44.9246 21.3585 44.8537 21.4465 44.7773C21.6666 44.5971 21.8812 44.4116 22.0958 44.2205C22.2113 44.1223 22.3268 44.024 22.4424 43.9148C22.5689 43.8057 22.69 43.6965 22.811 43.5819C23.0421 43.3745 23.2677 43.1561 23.4933 42.9378C23.5235 42.9133 23.5511 42.8859 23.5758 42.8559C23.7959 42.6485 24.0104 42.4302 24.2195 42.2118C24.3681 42.0699 24.5056 41.9226 24.6377 41.7752C24.7972 41.6169 24.9458 41.4531 25.0943 41.2894C25.1824 41.1966 25.2649 41.1038 25.3419 41.011C25.54 40.7927 25.7325 40.5689 25.9251 40.3451C26.0242 40.2305 26.1232 40.1104 26.2167 39.9903C26.3598 39.8266 26.4973 39.6628 26.6239 39.4936C26.7559 39.3353 26.8825 39.1716 27.0035 39.0078C27.119 38.8659 27.2291 38.7185 27.3336 38.5766C27.4767 38.391 27.6142 38.2054 27.7463 38.0144C27.8783 37.8234 28.0214 37.6323 28.1534 37.4358C28.2189 37.3501 28.2796 37.2608 28.335 37.1684C28.522 36.8954 28.7036 36.6171 28.8797 36.3387C29.1052 35.9948 29.3198 35.6455 29.5234 35.2907C29.6169 35.1379 29.705 34.985 29.793 34.8322C30.5065 33.5838 31.1423 32.2932 31.6967 30.9677C31.7792 30.7821 31.8562 30.5965 31.9277 30.4055C32.0158 30.2035 32.0928 29.9961 32.1698 29.7887C32.2358 29.6195 32.3019 29.4448 32.3624 29.2702C32.4339 29.0791 32.4999 28.8826 32.566 28.6916C32.808 27.9929 33.0281 27.2888 33.2207 26.5738C33.2702 26.3936 33.3197 26.219 33.3637 26.0388C33.3968 25.9242 33.4243 25.8151 33.4518 25.7004L33.5838 25.1437C33.7599 24.385 33.9084 23.6208 34.035 22.8457L34.1175 22.3217C34.1285 22.2399 34.1395 22.1634 34.1505 22.0816C34.1835 21.8741 34.211 21.6667 34.2331 21.4593C34.2716 21.1482 34.3101 20.8371 34.3376 20.5259C34.3486 20.4441 34.3541 20.3622 34.3596 20.2803C34.3816 20.0674 34.3981 19.8491 34.4146 19.6362C34.4311 19.4234 34.4421 19.1996 34.4531 18.9812C34.4641 18.8284 34.4696 18.6756 34.4751 18.5173C34.4971 18.0151 34.5081 17.5129 34.5081 17.0108C34.5081 16.7542 34.5082 16.5032 34.4971 16.2521C34.4971 16.1211 34.4971 15.9955 34.4916 15.8645C34.4751 15.4115 34.4531 14.9639 34.4201 14.5163L34.4201 14.5C34.4146 14.3908 34.4091 14.2816 34.3981 14.1725C34.3761 13.8722 34.3486 13.5775 34.3211 13.2773C34.3212 13.2679 34.3194 13.2586 34.3156 13.25C35.0569 13.9198 35.75 14.6402 36.3898 15.406L36.4063 15.4224C36.4093 15.4254 36.4113 15.4292 36.4118 15.4333C39.5703 19.2204 41.2947 23.9837 41.2865 28.899Z" fill="#FF8FA2"/>
<path d="M34.4867 16.9133C34.4896 23.4426 32.7151 29.8514 29.3509 35.4611C25.9867 41.0709 21.1579 45.6731 15.3756 48.7806C15.3685 48.7889 15.3588 48.7947 15.3481 48.797L15.3427 48.8024C15.0568 48.9553 14.771 49.1026 14.4852 49.25C12.6915 48.7805 10.9687 48.0756 9.36254 47.1539C8.2006 46.4893 7.10384 45.718 6.08667 44.8504C6.27905 44.6484 6.46592 44.4465 6.6528 44.239L6.65824 44.2336C6.65824 44.2281 6.6638 44.2227 6.66929 44.2172L6.67473 44.2172C12.6893 37.5786 16.0108 28.9605 15.9967 20.0301C15.9976 16.1832 15.3854 12.3604 14.1829 8.70355L14.1774 8.70355C14.1774 8.69263 14.1719 8.68172 14.1719 8.6708L14.1664 8.6708C14.1632 8.66202 14.1614 8.65281 14.1609 8.6435C14.051 8.31052 13.9356 7.97756 13.8146 7.65004L19.9597 7.65004C25.262 7.64275 30.3752 9.60544 34.2943 13.1523C34.3383 13.5671 34.3712 13.982 34.3987 14.4023C34.4592 15.232 34.4867 16.0672 34.4867 16.9133Z" fill="#9087E5"/>
<path d="M16 19.98C16 20.3457 15.9946 20.7114 15.9837 21.0717C15.9782 21.3064 15.9673 21.5356 15.9564 21.7704C15.9128 22.7092 15.831 23.6426 15.711 24.5706C15.6838 24.8108 15.651 25.0455 15.6129 25.2802C15.5747 25.5695 15.5256 25.8534 15.4765 26.1427C15.4329 26.4156 15.3838 26.6831 15.3293 26.956C15.3184 27.0215 15.302 27.087 15.2911 27.1525C15.2475 27.3763 15.1984 27.6056 15.1493 27.8294C14.8932 28.9927 14.5783 30.1422 14.2059 31.2737C14.135 31.4975 14.0586 31.7158 13.9823 31.9287C13.9756 31.955 13.9665 31.9806 13.955 32.0051C13.8787 32.2289 13.8023 32.4418 13.7205 32.6602C13.6987 32.7257 13.6715 32.7966 13.6442 32.8676C13.5569 33.1023 13.4642 33.3316 13.3715 33.5608C13.2679 33.8228 13.1588 34.0848 13.0443 34.3414C12.9298 34.6089 12.8098 34.8763 12.6898 35.1438C12.5753 35.3894 12.4553 35.6351 12.3408 35.8753C12.2154 36.1318 12.09 36.3829 11.9591 36.6285C11.8282 36.8742 11.6973 37.1253 11.561 37.3709C11.4247 37.6165 11.2883 37.8622 11.152 38.1023C11.0156 38.3425 10.8684 38.5881 10.7212 38.8283C10.5739 39.0685 10.4267 39.3032 10.274 39.5379C9.97405 40.0074 9.66321 40.4713 9.34146 40.9244C9.01971 41.3775 8.6816 41.8251 8.34349 42.2672C7.83087 42.9168 7.30009 43.55 6.7511 44.1668L6.74564 44.1668C6.74019 44.1722 6.74019 44.1722 6.74019 44.1777C6.74019 44.1791 6.73964 44.1805 6.73861 44.1816C6.73757 44.1826 6.73621 44.1832 6.73474 44.1832C6.54932 44.3906 6.35845 44.598 6.16758 44.8C5.30835 44.0609 4.50959 43.2541 3.77901 42.3873C3.77347 42.3769 3.76607 42.3677 3.7572 42.36C0.550114 38.5528 -1.2061 33.7317 -1.19993 28.7518L-1.19993 7.59998L13.8351 7.59998C13.955 7.92749 14.0695 8.255 14.1732 8.58797L14.1786 8.59342C14.1791 8.60273 14.181 8.61194 14.1841 8.62072L14.1895 8.62072L14.1895 8.63709C14.1892 8.64006 14.1895 8.64306 14.1904 8.64589C14.1914 8.64872 14.193 8.65131 14.195 8.65347L14.2004 8.65347C14.2053 8.67429 14.2126 8.69444 14.2222 8.71351L14.2877 8.9264C14.4731 9.505 14.6422 10.0891 14.7949 10.684C14.9039 11.0825 15.0021 11.4919 15.0948 11.9013C15.2638 12.6437 15.4111 13.4024 15.5365 14.1721C15.5638 14.3577 15.5965 14.5378 15.6183 14.7234C15.6838 15.1764 15.7437 15.6295 15.7928 16.088C15.8146 16.2572 15.831 16.4319 15.8419 16.6011C15.8746 16.9177 15.8964 17.2398 15.9182 17.5564C15.9728 18.3588 16 19.1666 16 19.98Z" fill="#C4D0FB"/>
</g>
<rect width="40" height="36" rx="9.6" fill="white"/>
<mask id="mask1_148_14424" style="mask-type:alpha" maskUnits="userSpaceOnUse" x="9" y="5" width="22" height="26">
<path d="M26.6747 26.3238C27.6215 25.3947 29.1531 25.398 30.0956 26.3316C31.0381 27.2653 31.0345 28.7763 30.0878 29.7057C29.1411 30.6349 27.6094 30.6313 26.6669 29.6978C25.7243 28.7641 25.7279 27.2532 26.6747 26.3238ZM16.6346 5.86288C18.982 5.30974 21.4557 5.63627 23.5712 6.77792C25.6865 7.91962 27.2921 9.79478 28.0741 12.0367C28.6449 13.6733 28.747 15.4197 28.3876 17.0894C28.1649 18.1236 27.0165 18.5695 26.0428 18.1559C25.0506 17.7342 24.633 16.5714 24.705 15.4957C24.755 14.748 24.6556 13.9911 24.4042 13.2701C23.935 11.9249 22.9713 10.7998 21.702 10.1148C20.4327 9.42982 18.9484 9.23407 17.5399 9.56601C16.1315 9.89795 14.9 10.7338 14.0858 11.9098C13.2717 13.0858 12.9335 14.5177 13.1376 15.9254C13.3417 17.3331 14.0732 18.6157 15.1893 19.5221C16.3054 20.4284 17.7258 20.8937 19.1727 20.8268C19.9807 20.7893 20.7644 20.5869 21.4774 20.2408C22.3284 19.8278 23.3818 19.7607 24.1288 20.2916C24.3872 20.4075 24.6305 20.5678 24.8427 20.7779L25.9794 21.9049C26.922 22.8386 26.9192 24.3494 25.9725 25.2789C25.0257 26.2084 23.4933 26.2049 22.5507 25.2711L21.5477 24.2769C20.838 24.4748 20.1032 24.5958 19.3553 24.6305C16.944 24.7421 14.5768 23.9671 12.7167 22.4566C10.8566 20.9461 9.63698 18.8086 9.29675 16.4625C8.95659 14.1163 9.51987 11.7292 10.8768 9.76913C12.2338 7.80907 14.2872 6.41612 16.6346 5.86288Z" fill="#6A5AE0"/>
</mask>
<g mask="url(#mask1_148_14424)">
<path fill-rule="evenodd" clip-rule="evenodd" d="M22.3265 38.1282L41.9319 18.7711L37.6929 14.7238L15.2615 37.0723L22.3265 38.1282Z" fill="#6A5AE0"/>
<path fill-rule="evenodd" clip-rule="evenodd" d="M18.4754 32.9713L37.4868 14.5985L33.3762 10.757L11.6245 31.9692L18.4754 32.9713Z" fill="#6A5AE0"/>
<path fill-rule="evenodd" clip-rule="evenodd" d="M12.7573 32.1888L35.0974 10.0988L31.1817 5.96943L8.84159 28.0594L12.7573 32.1888Z" fill="#6A5AE0"/>
<path fill-rule="evenodd" clip-rule="evenodd" d="M8.72331 28.6078L31.0212 6.45531L25.2272 4.01331L5.56299 23.5493L8.72331 28.6078Z" fill="#6A5AE0"/>
<path fill-rule="evenodd" clip-rule="evenodd" d="M5.56299 23.8476L25.7679 4.01331L14.9438 5.07586L5.56299 15.1701V23.8476Z" fill="#6A5AE0"/>
</g>
</svg>
